# xmcd
#
# Track frame offsets:
#	151
#	25320
#	46935
#	60776
#	90605
#	113422
#	128747
#	145112
#	169709
#	192766
#	214511
#	232240
#	256749
#	276274
#
# Disc length: 3944
#
# Revision: 1
# Processed by: cddbd v1.5.1PL0 Copyright (c) Steve Scherf et al.
# Submitted via: Feurio! 1.61 - http://www.feurio.com
# Normalized: r0:DSETVAR1
#
DISCID=b50f660e
DTITLE=Various Artist - Darren's Stepper's Compilation Vol. #28
DYEAR=1900
DGENRE=
TTITLE0=Lower East Side - Let Me Love You Tonight
TTITLE1=Phillipe' - What I'm Trying To Say
TTITLE2=Bette Midler - That's How Heartaches Are Made
TTITLE3=Afterlife - Show Me Something
TTITLE4=Michael Ross - The Boss
TTITLE5=Kashif - It's Alright
TTITLE6=Koffee Brown - The After Party
TTITLE7=Rootman - Beyond The Hills
TTITLE8=Patti Austin - The Look Of Love
TTITLE9=Shaggy - It Wasnt Me
TTITLE10=Maxwell - Gotta Get To Know You
TTITLE11=Nicolas Beard - Can We Pretend
TTITLE12=Michael Avery - U - R My Woman
TTITLE13=Rippingtons w/Howard Hewett - I Found Heaven
EXTD=
EXTT0=
EXTT1=
EXTT2=
EXTT3=
EXTT4=
EXTT5=
EXTT6=
EXTT7=
EXTT8=
EXTT9=
EXTT10=
EXTT11=
EXTT12=
EXTT13=
PLAYORDER=
